<svg width="1024" height="1024" viewBox="0 0 1024 1024" fill="none" xmlns="http://www.w3.org/2000/svg">
  <rect x="64" y="64" width="896" height="896" rx="208" fill="#FBF7F0"/>
  <rect x="64" y="64" width="896" height="896" rx="208" stroke="#E5E5E0" stroke-width="24"/>
  <path d="M377 316C377 229.961 436.782 176 512 176C587.218 176 647 229.961 647 316" stroke="#D97757" stroke-width="56" stroke-linecap="round"/>
  <mask id="bag-mask" maskUnits="userSpaceOnUse" x="274" y="286" width="476" height="462">
    <rect x="274" y="286" width="476" height="462" rx="120" fill="white"/>
    <rect x="404" y="382" width="82" height="286" rx="41" fill="black"/>
    <rect x="404" y="382" width="222" height="82" rx="41" fill="black"/>
    <rect x="404" y="510" width="174" height="74" rx="37" fill="black"/>
  </mask>
  <rect x="274" y="286" width="476" height="462" rx="120" fill="#323232" mask="url(#bag-mask)"/>
  <rect x="664" y="344" width="62" height="62" rx="31" fill="#D97757"/>
</svg>
